<?xml version="1.0" encoding="utf-8"?>
<svg width="277.023" height="274.462" viewBox="0 0 277.023 274.462" fill="none" xmlns="http://www.w3.org/2000/svg">
  <g id="Illustration">
    <g id="Group">
      <g id="Group" transform="translate(0 46.165)">
        <g id="Vector" transform="translate(58.942 25.272)">
          <path id="Vector-border" d="M46.3225 13.6245L41.4595 1.0847L44.2565 0L49.2945 12.9908L49.4693 13.4418L49.3478 13.91L47.1875 22.2336L50.7133 31.7635L50.8482 32.1278L50.7891 32.512L47.6114 53.1826L47.5658 53.479L47.4099 53.735L38.5277 68.3206L38.1691 68.9096L37.4886 69.0208L23.5685 71.2969L23.1317 71.3684L22.7261 71.1912L9.50353 65.4156L9.09588 65.2376L8.8512 64.8661L0 51.4263L2.50546 49.7762L11.1119 62.8445L23.5212 68.2647L36.3241 66.1713L44.6918 52.4304L47.765 32.4402L44.2105 22.833L44.0471 22.3913L44.1654 21.9356L46.3225 13.6245Z" fill="#303030" fill-rule="evenodd" />
        </g>
        <g id="Vector" transform="translate(85.753 51.865)">
          <path id="Vector-border" d="M6.05791 12.7077L0 1.4185L2.64346 0L8.87496 11.6128L9.04856 11.9363L9.05312 12.3034L9.09962 16.0504L9.1091 16.8146L8.49652 17.2715L5.00874 19.8727L3.21517 17.4679L6.09037 15.3235L6.05791 12.7077ZM7.55314 12.3221L7.55323 12.3221L8.84985 11.6262L7.55314 12.3221Z" fill="#303030" fill-rule="evenodd" />
        </g>
        <g id="Vector" transform="translate(40.631 0)">
          <path id="Vector-border" d="M41.231 0L41.4522 0.00509L54.2407 0.29928L54.2407 0.29929L55.2016 0.3214L55.5831 1.20364L61.1325 14.0397L61.3004 14.428L61.2406 14.8469L60.1245 22.6661L60.011 23.4618L59.2856 23.808L40.8546 32.6027L40.4554 32.7932L40.0167 32.7366L20.137 30.172L15.7624 40.3865L13.0047 39.2054L17.8256 27.9488L18.2719 26.9066L19.3963 27.0516L39.9619 29.7047L57.2682 21.4465L58.211 14.8419L53.2109 3.27638L41.6045 3.00938L26.047 7.31435L15.9898 15.1815L15.0656 14L15.0656 14.0001L15.9898 15.1815L15.7614 15.3602L15.4828 15.4409L3.7508 18.838L3.06608 27.3085L10.0528 39.3042L7.46044 40.8141L0.23686 28.4116L0 28.005L0.03792 27.5359L0.84397 17.5643L0.92739 16.5323L1.92189 16.2444L14.3698 12.64L24.4342 4.76706L24.6699 4.58266L24.9584 4.50285L41.0177 0.05902L41.231 0Z" fill="#303030" fill-rule="evenodd" />
        </g>
        <g id="Vector" transform="translate(56.944 18.295)">
          <path id="Vector-border" d="M4.99906 5.17156L2.75138 0L0 1.19581L2.24769 6.36738L4.99906 5.17156Z" fill="#303030" fill-rule="evenodd" />
        </g>
        <g id="Vector" transform="translate(44.978 43.071)">
          <path id="Vector-border" d="M3.47349 6.15084L8.69639 2.44716L6.96106 0L0.86907 4.31995L0 4.93623L0.29565 5.95979L4.38798 20.1274L4.6202 20.9314L5.42629 21.1561L11.4253 22.8283L12.2308 19.9385L7.03794 18.491L3.47349 6.15084ZM5.82908 19.7111L5.82906 19.7112L4.38798 20.1274L5.82908 19.7111Z" fill="#303030" fill-rule="evenodd" />
        </g>
        <g id="Vector" transform="translate(36.432 86.119)">
          <path id="Vector-border" d="M3.32496 6.89427L11.5985 2.67218L10.2349 0L0.98066 4.72254L0 5.22298L0.18345 6.30856L2.84966 22.0865L3.00237 22.9902L3.87615 23.2667L30.4453 31.6743L30.8286 31.7956L31.2213 31.7089L48.8927 27.807L49.1456 27.7512L49.3652 27.6137L57.1313 22.7518L58.0767 22.16L57.7821 21.0843L55.3019 12.0263L52.4084 12.8186L54.594 20.8008L47.9928 24.9335L30.967 28.6928L5.65504 20.683L3.32496 6.89427ZM30.8978 30.2442L30.4453 31.6743L30.8979 30.2443L30.8978 30.2442ZM4.32872 21.8365L4.3287 21.8366L2.84966 22.0865L4.32872 21.8365Z" fill="#303030" fill-rule="evenodd" />
        </g>
        <g id="Vector" transform="translate(51.779 69.194)">
          <path id="Vector-border" d="M1.9141 23.6875L0.0209 0.24146L3.01117 0L4.91782 23.6127L4.93127 23.7793L4.90771 23.9448L2.97006 37.555L0 37.1322L1.9141 23.6875Z" fill="#303030" fill-rule="evenodd" />
        </g>
        <g id="Vector" transform="translate(14.612 70.124)">
          <path id="Vector-border" d="M7.76183 5.6206L31.8353 0L32.5174 2.92144L9.24115 8.3559L3.46373 24.5734L17.5635 38.6276L15.4456 40.7524L0.67292 26.0274L0 25.3566L0.31885 24.4616L6.68986 6.57794L6.9646 5.80674L7.76183 5.6206Z" fill="#303030" fill-rule="evenodd" />
        </g>
        <g id="Vector" transform="translate(84.033 119.69)">
          <path id="Vector-border" d="M8.19491 22.5307L0 1.0702L2.80262 0L11.0803 21.6772L11.163 21.8939L11.1765 22.1255L12.37 42.7189L9.37508 42.8925L8.19491 22.5307Z" fill="#303030" fill-rule="evenodd" />
        </g>
        <g id="Vector" transform="translate(70.22 123.368)">
          <path id="Vector-border" d="M4.30685 19.9437L0 0.6537L2.92792 0L7.28377 19.5095L7.33278 19.7289L7.31525 19.9532L5.12958 47.9168L2.1387 47.683L4.30685 19.9437ZM5.81969 19.8363L5.81981 19.8363L6.94796 19.5844L5.81969 19.8363Z" fill="#303030" fill-rule="evenodd" />
        </g>
        <g id="Vector" transform="translate(99.393 101.841)">
          <path id="Vector-border" d="M19.7249 9.37543L0 2.8481L0.9425 0L21.2027 6.70444L21.7379 6.88157L22.0239 7.36742L37.2306 33.1942L37.4235 33.5219L37.4371 33.9018L38.7966 71.9538L46.8145 109.668L43.8801 110.292L35.8349 72.4501L35.8078 72.3223L35.8031 72.1917L34.4526 34.3888L19.7249 9.37543Z" fill="#303030" fill-rule="evenodd" />
        </g>
        <g id="Vector" transform="translate(0 106.154)">
          <path id="Vector-border" d="M5.15092 13.0218L17.9394 0L20.0798 2.10206L7.66572 14.7427L3.0485 64.8203L20.4212 113.141L17.5981 114.156L0.11271 65.5218L0 65.2083L0.03059 64.8766L4.72746 13.9351L4.77652 13.403L5.15092 13.0218L5.15092 13.0218Z" fill="#303030" fill-rule="evenodd" />
        </g>
        <g id="Vector" transform="translate(36.562 143.223)">
          <path id="Vector-border" d="M0.07713 26.1675L6.58765 0L9.4989 0.72432L3.06551 26.5818L10.9618 71.0308L8.00802 71.5555L0.0558701 26.7921L0 26.4775L0.07713 26.1675L0.07713 26.1675Z" fill="#303030" fill-rule="evenodd" />
        </g>
        <g id="Vector" transform="translate(110.918 143.383)">
          <path id="Vector-border" d="M1.36237 10.4342L0 0.40376L2.9727 0L4.35232 10.1573L4.36955 10.2843L4.36503 10.4123L2.86614 10.3592L2.86585 10.3592L4.36503 10.4123L3.20702 43.1545L8.01016 77.9418L5.03835 78.3522L0.21747 43.4363L0.323728 43.4216L0.21747 43.4363L0.19972 43.3078L0.20431 43.1782L1.36237 10.4342Z" fill="#303030" fill-rule="evenodd" />
        </g>
        <g id="Vector" transform="translate(113.384 192.145)">
          <path id="Vector-border" d="M14.052 22.9933L2.68954 0L0 1.32906L11.3624 24.3224L14.052 22.9933Z" fill="#303030" fill-rule="evenodd" />
        </g>
        <g id="Vector" transform="translate(92.874 41.625)">
          <path id="Vector-border" d="M0 1.84108L3.87531 6.82684L6.24395 4.98576L2.36864 0L0 1.84108Z" fill="#303030" fill-rule="evenodd" />
        </g>
        <g id="Vector" transform="translate(76.424 42.555)">
          <path id="Vector-border" d="M0 1.84108L3.87531 6.82684L6.24395 4.98576L2.36864 0L0 1.84108Z" fill="#303030" fill-rule="evenodd" />
        </g>
        <g id="Vector" transform="translate(78.263 76.148)">
          <path id="Vector-border" d="M1.95705 0.08981L1.86283 1.58685L1.86283 1.58685L1.95706 0.08981L15.2416 0.92594L16.808 1.02453L16.6386 2.58486L16.3596 5.15515L16.2468 6.19468L15.2324 6.44843L6.38118 8.66259L5.65315 5.75227L13.395 3.81564L3.19557 3.1737L2.98162 5.09716L0 4.7655L0.37203 1.42102L0.37202 1.42102L0.53009 0L1.95705 0.08981Z" fill="#303030" fill-rule="evenodd" />
        </g>
      </g>
      <g id="Group" transform="translate(149.656 58.012)">
        <g id="Vector" transform="translate(30.087 12.021)">
          <path id="Vector-border" d="M23.6692 0L24.0914 0.01823L44.181 0.88532L44.6304 0.90471L44.995 1.1682L57.892 10.4894L58.1404 10.6689L58.2984 10.9315L65.15 22.312L65.4906 22.8777L65.3033 23.511L61.7225 35.6193L58.8457 34.7685L62.2392 23.2936L55.8864 12.7413L43.6023 3.86314L24.3843 3.03366L9.20201 11.4489L3.16185 23.2132L6.5027 38.402L6.54656 38.6014L6.53552 38.8052L5.5261 57.4586L10.1654 73.6102L21.1136 87.5618L37.7704 87.5618L43.0555 80.9842L45.3941 82.8633L39.6587 90.0013L39.2083 90.5618L19.6543 90.5618L19.2039 89.9878L7.62446 75.2318L7.44365 75.0014L7.3628 74.7199L2.57293 58.0439L2.50318 57.8011L2.51683 57.5488L3.52887 38.847L0.11595 23.3304L0 22.8033L0.24654 22.3231L6.74156 9.67292L6.94987 9.2672L7.34877 9.0461L23.2995 0.20488L23.6692 0Z" fill="#303030" fill-rule="evenodd" />
        </g>
        <g id="Vector" transform="translate(37.386 30.018)">
          <path id="Vector-border" d="M10.9592 0L29.4211 0L29.8272 0.31569L43.1738 10.6898L43.5598 10.9898L43.6949 11.4597L46.0955 19.8113L50.15 19.6195L51.0237 19.5782L51.4899 20.3182L56.4658 28.2149L56.7857 28.7225L56.6672 29.3107L53.474 45.1661L53.2727 46.1657L52.269 46.3462L45.898 47.492L45.367 44.5394L50.7344 43.5741L53.6079 29.3066L49.4181 22.6575L45.0523 22.8639L43.8675 22.92L43.5398 21.78L40.9467 12.7583L28.3923 3L11.7904 3L1.54386 9.14993L0 6.57768L10.6029 0.21387L10.9592 0ZM11.3748 1.50006L11.3748 1.5L10.6205 0.2433L11.3748 1.50006Z" fill="#303030" fill-rule="evenodd" />
        </g>
        <g id="Vector" transform="translate(48.485 81.97)">
          <path id="Vector-border" d="M15.7293 0L15.504 1.84937L15.008 5.9216L14.8825 6.95147L13.8746 7.19745L13.519 5.74023L13.5189 5.74022L13.8746 7.19745L4.2948 9.53549L3.58349 6.62104L12.1554 4.52898L12.3007 3.336L5.44852 3.98103L0.96473 5.50378L0 2.66313L4.65037 1.0838L4.81698 1.02722L4.99215 1.01073L13.8744 0.1746L15.7293 0Z" fill="#303030" fill-rule="evenodd" />
        </g>
        <g id="Vector" transform="translate(49.507 63.557)">
          <path id="Vector-border" d="M3.32191 9.91128L5.59719 0.72096L2.68511 0L0.20491 10.018L0 10.8457L0.60635 11.4452L5.16372 15.9509L7.27292 13.8176L3.32191 9.91128Z" fill="#303030" fill-rule="evenodd" />
        </g>
        <g id="Vector" transform="translate(81.453 81.949)">
          <path id="Vector-border" d="M0.01092 20.7173L1.93308 0L4.92025 0.27716L3.00903 20.8766L3.68117 31.2272L35.0039 42.2327L35.4508 42.3897L35.7265 42.7749L45.2443 56.0755L45.5207 56.4618L45.5244 56.9369L45.9119 107.492L45.9135 107.699L45.8586 107.9L44.4137 107.503L44.412 107.503L45.8586 107.9L38.976 133.014L36.0827 132.221L42.9104 107.307L42.5282 57.4349L33.5624 44.9059L1.75134 33.729L0.81598 33.4003L0.75173 32.411L0.00766003 20.953L1.5042 20.8558L0.01092 20.7173ZM1.50451 20.8558L1.50418 20.8558L0.00766 20.953L0 20.835L0.01092 20.7173L1.50451 20.8558Z" fill="#303030" fill-rule="evenodd" />
        </g>
        <g id="Vector" transform="translate(60.38 51.729)">
          <path id="Vector-border" d="M4.20772 0L5.02843 0.42852L9.8028 2.9214L8.41427 5.58072L4.46061 3.51636L1.75476 5.46769L0 3.03442L3.45678 0.54154L4.20772 0Z" fill="#303030" fill-rule="evenodd" />
        </g>
        <g id="Vector" transform="translate(40.46 51.729)">
          <path id="Vector-border" d="M4.20772 0L5.02843 0.42852L9.8028 2.9214L8.41427 5.58072L4.46061 3.51636L1.75476 5.46769L0 3.03442L3.45678 0.54154L4.20772 0Z" fill="#303030" fill-rule="evenodd" />
        </g>
        <g id="Vector" transform="translate(75.128 0)">
          <path id="Vector-border" d="M32.914 0L33.3652 0.47837L47.5334 15.4976L47.8651 15.8493L47.9291 16.3285L51.4169 42.465L51.4479 42.6974L51.4065 42.9281L45.9036 73.6323L45.8707 73.8159L45.7938 73.9859L36.6945 94.0993L36.0608 95.5002L34.676 94.832L22.3215 88.8708L21.4734 88.4615L21.4734 64.0619L24.4734 64.0619L24.4734 86.578L34.5949 91.4619L42.9835 72.9193L48.4122 42.6297L45.0194 17.2045L31.6343 3.01535L13.1416 3.23403L1.7992 11.735L0 9.33439L11.7344 0.53963L12.1264 0.24582L12.6163 0.24003L12.634 1.73993L12.6341 1.73999L12.6163 0.24003L32.2564 0.00777006L32.914 0Z" fill="#303030" fill-rule="evenodd" />
        </g>
        <g id="Vector" transform="translate(0 105.351)">
          <path id="Vector-border" d="M49.1119 0L50.3351 0.25914L65.9758 3.57266L67.165 3.82458L67.165 14.0943L67.1349 14.2423L62.8265 35.4201L60.3177 63.1245L61.7985 86.3115L61.8045 86.4053L61.7987 86.499L60.3106 110.731L57.3162 110.548L58.7986 86.4092L57.3164 63.1997L57.3091 63.0841L57.3195 62.9688L59.8462 35.0671L59.8537 34.9846L59.8702 34.9034L64.165 13.7921L64.165 6.25561L50.9365 3.45314L48.7144 8.8617L48.4843 9.42183L47.9298 9.6652L18.7393 22.4768L12.1511 34.9411L13.8859 76.5434L13.897 76.8109L13.815 77.0657L2.8556 111.099L0 110.18L10.8773 76.4009L9.13685 34.661L9.11996 34.256L9.3094 33.8976L16.3315 20.6126L17.6576 21.3135L17.6576 21.3135L16.3315 20.6126L16.5759 20.1502L17.0548 19.94L46.1696 7.1615L48.6367 1.15654L49.1119 0Z" fill="#303030" fill-rule="evenodd" />
        </g>
        <g id="Vector" transform="translate(65.658 104.408)">
          <path id="Vector-border" d="M17.2994 0L0 5.97673L0.97965 8.81227L18.279 2.83554L17.2994 0Z" fill="#303030" fill-rule="evenodd" />
        </g>
        <g id="Vector" transform="translate(46.886 112.204)">
          <path id="Vector-border" d="M18.338 8.5185L0 2.86694L0.88356 0L18.8009 5.5219L36.4203 0.60796L37.2262 3.49768L19.1827 8.52989L18.7587 8.64815L18.338 8.5185L18.338 8.5185Z" fill="#303030" fill-rule="evenodd" />
        </g>
        <g id="Vector" transform="translate(90.568 179.728)">
          <path id="Vector-border" d="M2.9669 33.5641L7.9273 0.44436L4.96039 0L0 33.1197L2.9669 33.5641Z" fill="#303030" fill-rule="evenodd" />
        </g>
        <g id="Vector" transform="translate(74.604 137.596)">
          <path id="Vector-border" d="M0.12353 14.6631L1.81317 0L4.79345 0.34342L3.22735 13.9344L11.1702 17.6566L19.6841 13.7627L18.3663 0.75648L21.351 0.45405L22.7771 14.5287L21.2847 14.68L21.2848 14.68L22.7771 14.5287L22.8854 15.5973L21.9087 16.0441L11.7864 20.6737L11.1548 20.9625L10.5259 20.6678L0.97716 16.1931L0 15.7351L0.12353 14.6631L0.12353 14.6631Z" fill="#303030" fill-rule="evenodd" />
        </g>
        <g id="Vector" transform="translate(27.028 181.428)">
          <path id="Vector-border" d="M0 33.1352L0 0L0 0L0 33.1352L0 33.1352Z" fill="#303030" fill-rule="evenodd" />
        </g>
      </g>
      <g id="Group" transform="translate(164.414 34.71)">
        <g id="Vector">
          <path id="Vector-border" d="M0 0L27.4992 0L27.4992 0L0 0L0 0Z" fill="#303030" fill-rule="evenodd" />
        </g>
        <g id="Vector" transform="translate(45.83 9.2)">
          <path id="Vector-border" d="M0 0L7.3321 0L7.3321 0L0 0L0 0Z" fill="#303030" fill-rule="evenodd" />
        </g>
        <g id="Vector" transform="translate(0 9.2)">
          <path id="Vector-border" d="M0 0L41.2488 0L41.2488 0L0 0L0 0Z" fill="#303030" fill-rule="evenodd" />
        </g>
        <g id="Vector" transform="translate(29.14 18.38)">
          <path id="Vector-border" d="M0 0L14.3852 0L14.3852 0L0 0L0 0Z" fill="#303030" fill-rule="evenodd" />
        </g>
        <g id="Vector" transform="translate(0 18.38)">
          <path id="Vector-border" d="M0 0L21.3452 0L21.3452 0L0 0L0 0Z" fill="#303030" fill-rule="evenodd" />
        </g>
      </g>
      <g id="Group" transform="translate(83.654 0)">
        <g id="Vector">
          <path id="Vector-border" d="M0 0L42.5354 0L42.5354 0L0 0L0 0Z" fill="#303030" fill-rule="evenodd" />
        </g>
        <g id="Vector" transform="translate(39.86 9.18)">
          <path id="Vector-border" d="M0 0L7.3321 0L7.3321 0L0 0L0 0Z" fill="#303030" fill-rule="evenodd" />
        </g>
        <g id="Vector" transform="translate(0 9.18)">
          <path id="Vector-border" d="M0 0L35.2808 0L35.2808 0L0 0L0 0Z" fill="#303030" fill-rule="evenodd" />
        </g>
        <g id="Vector" transform="translate(34.53 18.36)">
          <path id="Vector-border" d="M0 0L8.99072 0L8.99072 0L0 0L0 0Z" fill="#303030" fill-rule="evenodd" />
        </g>
        <g id="Vector" transform="translate(0 18.36)">
          <path id="Vector-border" d="M0 0L26.7396 0L26.7396 0L0 0L0 0Z" fill="#303030" fill-rule="evenodd" />
        </g>
        <g id="Vector" transform="translate(50.16 18.36)">
          <path id="Vector-border" d="M0 0L7.3321 0L7.3321 0L0 0L0 0Z" fill="#303030" fill-rule="evenodd" />
        </g>
        <g id="Vector" transform="translate(42.53 27.56)">
          <path id="Vector-border" d="M0 0L14.4007 0L14.4007 0L0 0L0 0Z" fill="#303030" fill-rule="evenodd" />
        </g>
        <g id="Vector" transform="translate(0 27.56)">
          <path id="Vector-border" d="M0 0L34.7383 0L34.7383 0L0 0L0 0Z" fill="#303030" fill-rule="evenodd" />
        </g>
      </g>
    </g>
  </g>
</svg>